<svg width="24" height="21" viewBox="0 0 24 21" fill="none" xmlns="http://www.w3.org/2000/svg">
    <mask id="mask0_122_2" style="mask-type:luminance" maskUnits="userSpaceOnUse" x="0" y="1"
        width="24" height="20">
        <path d="M23.9975 1.28735H0.581055V20.0206H23.9975V1.28735Z" fill="white" />
    </mask>
    <g mask="url(#mask0_122_2)">
        <path
            d="M23.3082 3.2799C21.8889 2.68461 20.4686 2.45813 19.049 2.45813C14.5424 2.45776 10.0362 4.73905 5.52962 4.73905C4.39941 4.73905 3.26992 4.59561 2.13971 4.23705C2.01275 4.1968 1.88543 4.17778 1.76103 4.17778C1.13134 4.17778 0.581055 4.66513 0.581055 5.34165V16.9496C0.581055 17.4117 0.84559 17.8497 1.27038 18.0275C2.68964 18.6232 4.10999 18.8497 5.52962 18.8497C10.0362 18.8497 14.5428 16.5684 19.0494 16.5684C20.1796 16.5684 21.309 16.7118 22.4392 17.0704C22.5662 17.1106 22.6936 17.1297 22.8179 17.1297C23.4476 17.1297 23.9979 16.6423 23.9979 15.9658V4.35816C23.9975 3.89569 23.733 3.45809 23.3082 3.2799ZM2.33729 6.12501C3.07345 6.30941 3.8418 6.40198 4.63211 6.45174C4.41697 7.52709 3.47152 8.33753 2.33729 8.33753V6.12501ZM2.33729 16.5527V14.8045C3.59483 14.8045 4.61235 15.8022 4.66833 17.051C3.844 16.9848 3.07345 16.8201 2.33729 16.5527ZM12.2893 14.1664C10.6725 14.1664 9.36226 12.5934 9.36226 10.6539C9.36226 8.71401 10.6729 7.14145 12.2893 7.14145C13.9058 7.14145 15.2164 8.71401 15.2164 10.6539C15.2164 12.5942 13.9054 14.1664 12.2893 14.1664ZM22.2413 15.1828C21.6003 15.0222 20.9347 14.9322 20.2538 14.874C20.4686 13.9197 21.26 13.1953 22.2413 13.0709V15.1828ZM22.2413 6.54394C21.1111 6.40088 20.2341 5.45727 20.1993 4.29193C20.9143 4.37133 21.593 4.51988 22.2413 4.75514V6.54394Z"
            fill="#00B2CA" />
    </g>
</svg>

