<svg xmlns="http://www.w3.org/2000/svg" width="150" height="150" viewBox="0 0 150 150">
  <g id="sokofiti-logo">
    <!-- White background rounded square -->
    <rect x="3" y="3" width="144" height="144" rx="30" ry="30" fill="#fff"/>
    
    <!-- Yellow bag (behind, right) -->
    <g id="yellow-bag">
      <path d="M82,38 L82,105 Q82,115 92,115 L125,115 Q135,115 135,105 L135,38 Q135,28 125,28 L92,28 Q82,28 82,38 Z" fill="#F7B917"/>
      <!-- Yellow bag handle -->
      <path d="M95,28 Q95,12 108.5,12 Q122,12 122,28" fill="none" stroke="#2D2D2D" stroke-width="4.5" stroke-linecap="round"/>
      <!-- Handle holes -->
      <circle cx="95" cy="28" r="4" fill="#fff"/>
      <circle cx="122" cy="28" r="4" fill="#fff"/>
    </g>
    
    <!-- Green bag (front, left) -->
    <g id="green-bag">
      <path d="M15,45 L15,120 Q15,132 27,132 L85,132 Q97,132 97,120 L97,45 Q97,33 85,33 L27,33 Q15,33 15,45 Z" fill="#3B8A3E"/>
      <!-- Green bag handle -->
      <path d="M35,33 Q35,10 56,10 Q77,10 77,33" fill="none" stroke="#2D2D2D" stroke-width="5" stroke-linecap="round"/>
      <!-- Handle holes -->
      <circle cx="35" cy="33" r="5" fill="#fff"/>
      <circle cx="77" cy="33" r="5" fill="#fff"/>
      
      <!-- Hand/Click icon on green bag -->
      <g id="click-icon" transform="translate(22, 52)">
        <!-- Outer ring -->
        <circle cx="18" cy="18" r="14" fill="none" stroke="#fff" stroke-width="3"/>
        <!-- Inner ring -->
        <circle cx="18" cy="18" r="8" fill="none" stroke="#fff" stroke-width="2.5"/>
        <!-- Center dot -->
        <circle cx="18" cy="18" r="3" fill="#fff"/>
        <!-- Hand/finger pointing down -->
        <path d="M18,32 L18,48 M12,42 L18,48 L24,42" stroke="#fff" stroke-width="3" stroke-linecap="round" stroke-linejoin="round" fill="none"/>
      </g>
    </g>
    
    <!-- Large S letter (white with black outline) -->
    <g id="s-letter">
      <text x="68" y="118" font-family="Arial Black, Arial, Helvetica, sans-serif" font-size="90" font-weight="900" fill="#fff" stroke="#2D2D2D" stroke-width="4" stroke-linejoin="round">S</text>
    </g>
  </g>
</svg>
